<?xml version="1.0" encoding="UTF-8" standalone="no"?>
<svg
   xmlns:dc="http://purl.org/dc/elements/1.1/"
   xmlns:cc="http://creativecommons.org/ns#"
   xmlns:rdf="http://www.w3.org/1999/02/22-rdf-syntax-ns#"
   xmlns:svg="http://www.w3.org/2000/svg"
   xmlns="http://www.w3.org/2000/svg"
   viewBox="0 0 287.46399 287.98532"
   height="287.98532"
   width="287.46399"
   xml:space="preserve"
   id="svg2"
   version="1.1"><metadata
     id="metadata8"><rdf:RDF><cc:Work
         rdf:about=""><dc:format>image/svg+xml</dc:format><dc:type
           rdf:resource="http://purl.org/dc/dcmitype/StillImage" /></cc:Work></rdf:RDF></metadata><defs
     id="defs6"><clipPath
       id="clipPath18"
       clipPathUnits="userSpaceOnUse"><path
         id="path16"
         d="M 0,215.989 H 215.598 V 0 H 0 Z" /></clipPath></defs><g
     transform="matrix(1.3333333,0,0,-1.3333333,0,287.98533)"
     id="g10"><g
       id="g12"><g
         clip-path="url(#clipPath18)"
         id="g14"><g
           transform="translate(108.4133,61.3543)"
           id="g20"><path
             id="path22"
             style="fill:#FFFFFF;fill-opacity:1;fill-rule:nonzero;stroke:none"
             d="m 0,0 h -1.562 -20.295 c 2.86,0 3.122,-5.04 3.122,-5.04 H -1.562 0 17.173 c 0,0 0.262,5.04 3.122,5.04 z" /></g><g
           transform="translate(107.0116,154.6349)"
           id="g24"><path
             id="path26"
             style="fill:#FFFFFF;fill-opacity:1;fill-rule:nonzero;stroke:none"
             d="M 0,0 H 1.575 22.03 C 19.145,0 18.883,5.04 18.883,5.04 H 1.575 0 -17.308 c 0,0 -0.267,-5.04 -3.147,-5.04 z" /></g><g
           transform="translate(115.404,104.0139)"
           id="g28"><path
             id="path30"
             style="fill:#FFFFFF;fill-opacity:1;fill-rule:nonzero;stroke:none"
             d="m 0,0 -20.696,-14.926 12.536,14.072 -12.536,10.375 9.55,15.1 H 5.568 L -8.757,9.32 Z m -28.689,-41.379 h 41.911 v 91 h -41.911 z" /></g></g></g></g></svg>