<?xml version="1.0" standalone="no"?>
<!DOCTYPE svg PUBLIC "-//W3C//DTD SVG 20010904//EN"
 "http://www.w3.org/TR/2001/REC-SVG-20010904/DTD/svg10.dtd">
<svg version="1.0" xmlns="http://www.w3.org/2000/svg"
 width="40.000000pt" height="100.000000pt" viewBox="0 0 40.000000 100.000000"
 preserveAspectRatio="xMidYMid meet">
<metadata>
Created by potrace 1.12, written by Peter Selinger 2001-2015
</metadata>
<g transform="translate(0.000000,100.000000) scale(0.100000,-0.100000)"
fill="#FFFFFF" stroke="none">
<path d="M26 975 l-16 -25 190 0 190 0 -16 25 c-16 25 -17 25 -174 25 -157 0
-158 0 -174 -25z"/>
<path d="M0 510 l0 -420 200 0 200 0 0 420 0 420 -200 0 -200 0 0 -420z m255
120 l-69 -70 38 -39 c46 -47 47 -46 -57 -121 l-72 -52 55 57 55 56 -40 32
c-21 18 -49 41 -61 52 l-22 20 44 68 44 67 77 0 77 0 -69 -70z"/>
<path d="M23 38 l13 -33 164 0 164 0 13 33 13 32 -190 0 -190 0 13 -32z"/>
</g>
</svg>
